<svg width="1600" height="900" xmlns="http://www.w3.org/2000/svg" xmlns:xlink="http://www.w3.org/1999/xlink" overflow="hidden"><g><rect x="0" y="0" width="1600" height="900" fill="#FFFFFF"/><path d="M267 313.35C267 303.768 274.768 296 284.35 296L596.65 296C606.232 296 614 303.768 614 313.35L614 676.65C614 686.232 606.232 694 596.65 694L284.35 694C274.768 694 267 686.232 267 676.65Z" stroke="#000000" stroke-width="1.66667" stroke-miterlimit="8" fill="#FFFFFF" fill-rule="evenodd"/><text font-family="Calibri,Calibri_MSFontService,Arial" font-weight="400" font-size="33" transform="matrix(-1.83697e-16 -1 1 -1.83697e-16 303.747 549)">Начало процесса</text><text font-family="Calibri,Calibri_MSFontService,Arial" font-weight="400" font-size="60" transform="translate(336.227 362)">Этап 1</text><path d="M626 313.4C626 303.79 633.79 296 643.4 296L956.6 296C966.21 296 974 303.79 974 313.4L974 676.6C974 686.21 966.21 694 956.6 694L643.4 694C633.79 694 626 686.21 626 676.6Z" stroke="#000000" stroke-width="1.66667" stroke-miterlimit="8" fill="#FFFFFF" fill-rule="evenodd"/><text font-family="Calibri,Calibri_MSFontService,Arial" font-weight="400" font-size="33" transform="matrix(-1.83697e-16 -1 1 -1.83697e-16 663.302 498)">Ход процесса</text><path d="M602 608 654 637 602 666Z" stroke="#000000" stroke-width="1.66667" stroke-miterlimit="8" fill="#FFFFFF" fill-rule="evenodd"/><text font-family="Calibri,Calibri_MSFontService,Arial" font-weight="400" font-size="60" transform="translate(695.781 362)">Этап 2</text><path d="M986 313.35C986 303.768 993.768 296 1003.35 296L1315.65 296C1325.23 296 1333 303.768 1333 313.35L1333 676.65C1333 686.232 1325.23 694 1315.65 694L1003.35 694C993.768 694 986 686.232 986 676.65Z" stroke="#000000" stroke-width="1.66667" stroke-miterlimit="8" fill="#FFFFFF" fill-rule="evenodd"/><text font-family="Calibri,Calibri_MSFontService,Arial" font-weight="400" font-size="33" transform="matrix(-1.83697e-16 -1 1 -1.83697e-16 1022.86 621)">Завершение процесса</text><path d="M962 608 1014 637 962 666Z" stroke="#000000" stroke-width="1.66667" stroke-miterlimit="8" fill="#FFFFFF" fill-rule="evenodd"/><text font-family="Calibri,Calibri_MSFontService,Arial" font-weight="400" font-size="60" transform="translate(1055.34 362)">Этап 3</text><text font-family="Calibri,Calibri_MSFontService,Arial" font-weight="400" font-size="30" transform="matrix(-1.83697e-16 -1 1 -1.83697e-16 232.374 596)">Исходный</text><text font-family="Calibri,Calibri_MSFontService,Arial" font-weight="400" font-size="30" transform="matrix(-1.83697e-16 -1 1 -1.83697e-16 232.374 461)">пункт</text><text font-family="Calibri,Calibri_MSFontService,Arial" font-weight="400" font-size="30" transform="matrix(-1.83697e-16 -1 1 -1.83697e-16 232.374 383)">процесс</text><text font-family="Calibri,Calibri_MSFontService,Arial" font-weight="400" font-size="30" transform="matrix(-1.83697e-16 -1 1 -1.83697e-16 232.374 279)">а</text><text font-family="Calibri,Calibri_MSFontService,Arial" font-weight="400" font-size="30" transform="matrix(-1.83697e-16 -1 1 -1.83697e-16 1387.16 553)">Результат процесса</text><path d="M1333 669.973C1333 697.871 1329.23 720.487 1324.58 720.487L807.419 720.486C802.769 720.486 799 743.102 799 771 799 743.102 795.231 720.486 790.581 720.486L273.419 720.486C268.769 720.486 265 697.87 265 669.972" stroke="#000000" stroke-width="1.66667" stroke-miterlimit="8" fill="none" fill-rule="evenodd"/><path d="M267 296C267 267.833 270.806 245 275.5 245L791.5 245C796.195 245 800 222.167 800 194 800 222.167 803.805 245 808.5 245L1324.5 245C1329.19 245 1333 267.833 1333 296" stroke="#000000" stroke-width="1.66667" stroke-miterlimit="8" fill="none" fill-rule="evenodd"/><text font-family="Calibri,Calibri_MSFontService,Arial" font-weight="400" font-size="30" transform="translate(527.671 814)">Внутренние условия реализации процесса</text><text font-family="Calibri,Calibri_MSFontService,Arial" font-weight="400" font-size="30" transform="translate(589.884 139)">Внешние факторы, влияющие на</text><text font-family="Calibri,Calibri_MSFontService,Arial" font-weight="400" font-size="30" transform="translate(658.65 175)">реализацию процесса</text></g></svg>